<?xml version="1.0" encoding="utf-8"?>
<!-- Generator: Adobe Illustrator 23.0.3, SVG Export Plug-In . SVG Version: 6.00 Build 0)  -->
<svg version="1.1" id="Calque_1" xmlns="http://www.w3.org/2000/svg" xmlns:xlink="http://www.w3.org/1999/xlink" x="0px" y="0px"
	 viewBox="0 0 1558 408" style="enable-background:new 0 0 1558 408;" xml:space="preserve">
<style type="text/css">
	.st0{fill:url(#SVGID_1_);}
	.st1{fill:url(#SVGID_2_);}
	.st2{fill:url(#SVGID_3_);}
	.st3{fill:url(#SVGID_4_);}
	.st4{fill:url(#SVGID_5_);}
	.st5{fill:url(#SVGID_6_);}
	.st6{fill:url(#SVGID_7_);}
	.st7{fill:url(#SVGID_8_);}
	.st8{fill:url(#SVGID_9_);}
	.st9{fill:#4F4D4D;}
	.st10{fill:url(#SVGID_10_);}
	.st11{fill:url(#SVGID_11_);}
	.st12{fill:url(#SVGID_12_);}
	.st13{fill:url(#SVGID_13_);}
	.st14{fill:url(#SVGID_14_);}
	.st15{fill:url(#SVGID_15_);}
	.st16{fill:url(#SVGID_16_);}
</style>
<g>
	<g>
		<linearGradient id="SVGID_1_" gradientUnits="userSpaceOnUse" x1="0.6676" y1="91.8925" x2="1059.0676" y2="-21.7917">
			<stop  offset="0" style="stop-color:#FF416C"/>
			<stop  offset="1" style="stop-color:#FF4B2B"/>
		</linearGradient>
		<path class="st0" d="M18,30.9c0-2.3,0.8-4.3,2.4-5.9c1.6-1.6,3.6-2.4,5.9-2.4c2.3,0,4.3,0.8,5.9,2.4c1.6,1.6,2.4,3.6,2.4,5.9
			v100.9h58.4c2.3,0,4.3,0.8,5.9,2.4c1.6,1.6,2.4,3.6,2.4,5.9c0,2.3-0.8,4.3-2.4,5.9c-1.6,1.6-3.6,2.4-5.9,2.4H26.3
			c-1.2,0-2.3-0.2-3.3-0.6c-1-0.4-1.9-1-2.6-1.8c-0.8-0.8-1.4-1.6-1.8-2.6c-0.4-1-0.6-2.1-0.6-3.3V30.9z"/>
		<linearGradient id="SVGID_2_" gradientUnits="userSpaceOnUse" x1="1.7799" y1="102.248" x2="1060.1799" y2="-11.4362">
			<stop  offset="0" style="stop-color:#FF416C"/>
			<stop  offset="1" style="stop-color:#FF4B2B"/>
		</linearGradient>
		<path class="st1" d="M193.6,131.8c2.3,0,4.3,0.8,5.9,2.4c1.6,1.6,2.4,3.6,2.4,5.9c0,2.3-0.8,4.3-2.4,5.9c-1.6,1.6-3.6,2.4-5.9,2.4
			h-72.8c-1.2,0-2.3-0.2-3.3-0.6c-1-0.4-1.9-1-2.6-1.8c-0.8-0.8-1.4-1.6-1.8-2.6c-0.4-1-0.6-2.1-0.6-3.3V30.9c0-1.2,0.2-2.2,0.6-3.3
			c0.4-1,1-1.9,1.8-2.7c0.8-0.8,1.6-1.3,2.6-1.8c1-0.4,2.1-0.6,3.3-0.6h72.8c2.3,0,4.3,0.8,5.9,2.4c1.6,1.6,2.4,3.6,2.4,5.9
			c0,2.3-0.8,4.3-2.4,5.9c-1.6,1.6-3.6,2.4-5.9,2.4h-64.4v37.9h46.3c2.3,0,4.3,0.8,5.9,2.4c1.6,1.6,2.4,3.6,2.4,5.9
			c0,2.3-0.8,4.3-2.4,5.9c-1.6,1.6-3.6,2.4-5.9,2.4h-46.3v37.9H193.6z"/>
		<linearGradient id="SVGID_3_" gradientUnits="userSpaceOnUse" x1="2.8345" y1="112.0665" x2="1061.2345" y2="-1.6177">
			<stop  offset="0" style="stop-color:#FF416C"/>
			<stop  offset="1" style="stop-color:#FF4B2B"/>
		</linearGradient>
		<path class="st2" d="M229.5,78.5c-3.9-3.6-6.6-7.2-8.1-11c-1.5-3.7-2.3-7.7-2.3-11.9c0-5.1,1-9.8,2.9-14c1.9-4.2,4.8-7.9,8.6-11.1
			h-0.1c6-5.2,13.1-7.9,21.2-7.9c2.6,0,5.2,0.3,7.9,1c2.6,0.7,5.2,1.7,7.6,3c2.4,1.3,4.7,3,6.8,5c2.1,2,4,4.3,5.7,7
			c0.8,1.4,1.2,2.9,1.2,4.5c0,1.2-0.2,2.3-0.6,3.3c-0.4,1-1,1.9-1.8,2.6c-0.8,0.8-1.7,1.4-2.7,1.8c-1,0.4-2.1,0.6-3.3,0.6
			c-1.1,0-2-0.2-2.8-0.5s-1.5-0.8-2.2-1.3c-0.7-0.6-1.3-1.2-1.9-2s-1.2-1.6-1.9-2.6c-1.3-1.8-3-3.2-5.2-4.1c-2.2-0.9-4.5-1.4-7-1.4
			c-2,0-3.9,0.4-5.8,1.2c-1.9,0.8-3.6,1.9-5,3.3c-1.5,1.4-2.7,3.1-3.6,5c-0.9,1.9-1.4,4-1.4,6.3c0,4,1.1,7.2,3.3,9.6
			c2.2,2.3,6.1,4.3,11.5,5.9c9.2,2.6,16.5,6.2,21.7,10.9c5.2,4.6,8.8,9.2,10.7,13.6c1.9,4.5,2.8,9.2,2.8,14.1
			c0,12.3-4.5,22.2-13.6,29.9h0.1c-7.3,6.2-15.6,9.3-24.9,9.3c-3.1,0-6.2-0.4-9.3-1.1c-3.1-0.8-6.1-1.9-8.9-3.3
			c-2.9-1.5-5.5-3.3-8-5.5c-2.5-2.2-4.7-4.7-6.5-7.5c-1.1-1.4-1.7-3.1-1.7-5c0-1.2,0.2-2.2,0.6-3.3c0.4-1,1-1.9,1.8-2.7
			c0.8-0.8,1.6-1.3,2.6-1.8c1-0.4,2.1-0.6,3.3-0.6c3.1,0,5.4,1.3,7,3.9c2.2,3.4,5,6,8.3,7.7c3.3,1.7,6.9,2.6,10.7,2.6
			c3,0,5.8-0.6,8.5-1.8c2.6-1.2,5-2.8,6.9-4.8c2-2,3.5-4.3,4.7-7c1.2-2.7,1.7-5.6,1.7-8.6c0-2.9-0.5-5.6-1.6-8.1
			c-1.1-2.5-3.1-5.1-6.2-7.6c-3.1-2.5-7.9-4.7-14.6-6.7C239.1,85,233.4,82,229.5,78.5z"/>
		<linearGradient id="SVGID_4_" gradientUnits="userSpaceOnUse" x1="4.1846" y1="124.6355" x2="1062.5846" y2="10.9513">
			<stop  offset="0" style="stop-color:#FF416C"/>
			<stop  offset="1" style="stop-color:#FF4B2B"/>
		</linearGradient>
		<path class="st3" d="M376.3,22.6c4.5,0,8.7,0.9,12.6,2.6c4,1.7,7.4,4,10.4,7c3,3,5.3,6.4,7,10.4c1.7,4,2.6,8.2,2.6,12.6
			c0,8-2.5,14.9-7.4,20.9c3.2,1.9,6,4.1,8.4,6.5c2.4,2.5,4.4,5.2,6.1,8.1c1.7,2.9,2.9,6,3.7,9.2c0.8,3.2,1.3,6.5,1.3,10
			c0,5.3-1,10.3-3.1,15c-2,4.7-4.8,8.8-8.3,12.3c-3.5,3.5-7.6,6.3-12.3,8.3c-4.7,2-9.7,3.1-15,3.1H352c-1.2,0-2.2-0.2-3.2-0.7
			c-1-0.4-1.9-1-2.6-1.8c-0.8-0.7-1.4-1.6-1.8-2.6c-0.4-1-0.7-2.1-0.7-3.3V30.9c0-1.2,0.2-2.2,0.7-3.3c0.4-1,1-1.9,1.8-2.6
			c0.8-0.7,1.6-1.3,2.6-1.8c1-0.4,2.1-0.7,3.2-0.7H376.3z M360.4,39.3v31.9h16c2.2,0,4.3-0.4,6.2-1.3c1.9-0.8,3.6-2,5-3.5
			c1.4-1.5,2.6-3.2,3.4-5.1c0.8-1.9,1.3-4,1.3-6.2c0-2.2-0.4-4.2-1.3-6.1c-0.8-1.9-2-3.6-3.5-5.1c-1.5-1.5-3.2-2.6-5.1-3.5
			c-1.9-0.8-3.9-1.3-6.1-1.3H360.4z M360.4,87.8v44h22c3,0,5.9-0.6,8.6-1.7c2.7-1.2,5-2.7,7-4.7c2-2,3.5-4.3,4.7-7
			c1.2-2.7,1.7-5.5,1.7-8.6c0-3-0.6-5.8-1.7-8.5c-1.2-2.7-2.7-5-4.7-7c-2-2-4.3-3.6-7-4.7c-2.7-1.2-5.5-1.7-8.5-1.7H360.4z"/>
		<linearGradient id="SVGID_5_" gradientUnits="userSpaceOnUse" x1="5.6353" y1="138.1417" x2="1064.0353" y2="24.4575">
			<stop  offset="0" style="stop-color:#FF416C"/>
			<stop  offset="1" style="stop-color:#FF4B2B"/>
		</linearGradient>
		<path class="st4" d="M558.2,85.6c0,17.4-6.2,32.2-18.5,44.5c-12.3,12.3-27.1,18.4-44.5,18.4c-17.4,0-32.3-6.1-44.5-18.4
			c-12.3-12.3-18.4-27.1-18.4-44.5c0-17.4,6.1-32.2,18.4-44.5c12.3-12.3,27.2-18.5,44.5-18.5c17.3,0,32.1,6.2,44.5,18.5
			c6.2,6.2,10.8,13,13.9,20.3C556.7,68.7,558.2,76.8,558.2,85.6z M495.2,39.3c-6.5,0-12.4,1.1-17.8,3.4c-5.4,2.3-10.3,5.7-14.9,10.2
			s-8,9.5-10.2,14.9c-2.2,5.4-3.3,11.3-3.3,17.8c0,12.8,4.5,23.7,13.5,32.7c9,9,19.9,13.5,32.7,13.5c12.8,0,23.7-4.5,32.7-13.5
			c9-9,13.5-19.9,13.5-32.7c0-12.7-4.5-23.6-13.5-32.7C518.9,43.8,508,39.3,495.2,39.3z"/>
		<linearGradient id="SVGID_6_" gradientUnits="userSpaceOnUse" x1="7.0737" y1="151.5332" x2="1065.4738" y2="37.849">
			<stop  offset="0" style="stop-color:#FF416C"/>
			<stop  offset="1" style="stop-color:#FF4B2B"/>
		</linearGradient>
		<path class="st5" d="M570.5,140.2V30.9c0-1.2,0.2-2.2,0.6-3.3c0.4-1,1-1.9,1.8-2.7c0.8-0.8,1.6-1.3,2.6-1.8c1-0.4,2.1-0.6,3.3-0.6
			c2.5,0,4.6,1,6.5,3.1l70.2,90.3v-85c0-2.3,0.8-4.3,2.4-5.9c1.6-1.6,3.6-2.4,5.9-2.4c2.3,0,4.3,0.8,5.9,2.4
			c1.6,1.6,2.4,3.6,2.4,5.9v109.2c0,1.2-0.2,2.3-0.6,3.3c-0.4,1-1,1.9-1.8,2.6c-0.8,0.8-1.7,1.4-2.7,1.8c-1,0.4-2.1,0.6-3.3,0.6
			c-2.5,0-4.6-1-6.4-2.9l-70.3-90.3v84.8c0,2.3-0.8,4.3-2.4,5.9c-1.6,1.6-3.6,2.4-5.9,2.4c-2.3,0-4.3-0.8-5.9-2.4
			C571.4,144.4,570.5,142.5,570.5,140.2z"/>
		<linearGradient id="SVGID_7_" gradientUnits="userSpaceOnUse" x1="8.3661" y1="163.5654" x2="1066.7661" y2="49.8811">
			<stop  offset="0" style="stop-color:#FF416C"/>
			<stop  offset="1" style="stop-color:#FF4B2B"/>
		</linearGradient>
		<path class="st6" d="M683.9,140.2V30.9c0-1.2,0.2-2.2,0.6-3.3c0.4-1,1-1.9,1.8-2.7c0.8-0.8,1.6-1.3,2.6-1.8c1-0.4,2.1-0.6,3.3-0.6
			c2.5,0,4.6,1,6.5,3.1l70.2,90.3v-85c0-2.3,0.8-4.3,2.4-5.9c1.6-1.6,3.6-2.4,5.9-2.4c2.3,0,4.3,0.8,5.9,2.4
			c1.6,1.6,2.4,3.6,2.4,5.9v109.2c0,1.2-0.2,2.3-0.6,3.3c-0.4,1-1,1.9-1.8,2.6c-0.8,0.8-1.7,1.4-2.7,1.8c-1,0.4-2.1,0.6-3.3,0.6
			c-2.5,0-4.6-1-6.4-2.9l-70.3-90.3v84.8c0,2.3-0.8,4.3-2.4,5.9c-1.6,1.6-3.6,2.4-5.9,2.4c-2.3,0-4.3-0.8-5.9-2.4
			C684.7,144.4,683.9,142.5,683.9,140.2z"/>
		<linearGradient id="SVGID_8_" gradientUnits="userSpaceOnUse" x1="9.5881" y1="174.942" x2="1067.988" y2="61.2578">
			<stop  offset="0" style="stop-color:#FF416C"/>
			<stop  offset="1" style="stop-color:#FF4B2B"/>
		</linearGradient>
		<path class="st7" d="M878.2,131.8c2.3,0,4.3,0.8,5.9,2.4c1.6,1.6,2.4,3.6,2.4,5.9c0,2.3-0.8,4.3-2.4,5.9c-1.6,1.6-3.6,2.4-5.9,2.4
			h-72.8c-1.2,0-2.3-0.2-3.3-0.6c-1-0.4-1.9-1-2.6-1.8c-0.8-0.8-1.4-1.6-1.8-2.6c-0.4-1-0.6-2.1-0.6-3.3V30.9c0-1.2,0.2-2.2,0.6-3.3
			c0.4-1,1-1.9,1.8-2.7c0.8-0.8,1.6-1.3,2.6-1.8c1-0.4,2.1-0.6,3.3-0.6h72.8c2.3,0,4.3,0.8,5.9,2.4c1.6,1.6,2.4,3.6,2.4,5.9
			c0,2.3-0.8,4.3-2.4,5.9c-1.6,1.6-3.6,2.4-5.9,2.4h-64.4v37.9H860c2.3,0,4.3,0.8,5.9,2.4c1.6,1.6,2.4,3.6,2.4,5.9
			c0,2.3-0.8,4.3-2.4,5.9c-1.6,1.6-3.6,2.4-5.9,2.4h-46.3v37.9H878.2z"/>
		<linearGradient id="SVGID_9_" gradientUnits="userSpaceOnUse" x1="10.6427" y1="184.7606" x2="1069.0427" y2="71.0763">
			<stop  offset="0" style="stop-color:#FF416C"/>
			<stop  offset="1" style="stop-color:#FF4B2B"/>
		</linearGradient>
		<path class="st8" d="M914.1,78.5c-3.9-3.6-6.6-7.2-8.1-11c-1.5-3.7-2.3-7.7-2.3-11.9c0-5.1,1-9.8,2.9-14c1.9-4.2,4.8-7.9,8.6-11.1
			H915c6-5.2,13.1-7.9,21.2-7.9c2.6,0,5.2,0.3,7.9,1c2.6,0.7,5.2,1.7,7.6,3c2.4,1.3,4.7,3,6.8,5c2.1,2,4,4.3,5.7,7
			c0.8,1.4,1.2,2.9,1.2,4.5c0,1.2-0.2,2.3-0.6,3.3c-0.4,1-1,1.9-1.8,2.6c-0.8,0.8-1.7,1.4-2.7,1.8c-1,0.4-2.1,0.6-3.3,0.6
			c-1.1,0-2-0.2-2.8-0.5s-1.5-0.8-2.2-1.3c-0.7-0.6-1.3-1.2-1.9-2c-0.6-0.8-1.2-1.6-1.9-2.6c-1.3-1.8-3-3.2-5.2-4.1
			c-2.2-0.9-4.5-1.4-7-1.4c-2,0-3.9,0.4-5.8,1.2c-1.9,0.8-3.6,1.9-5,3.3c-1.5,1.4-2.7,3.1-3.6,5c-0.9,1.9-1.4,4-1.4,6.3
			c0,4,1.1,7.2,3.3,9.6c2.2,2.3,6.1,4.3,11.5,5.9c9.2,2.6,16.5,6.2,21.7,10.9c5.2,4.6,8.8,9.2,10.7,13.6c1.9,4.5,2.8,9.2,2.8,14.1
			c0,12.3-4.5,22.2-13.6,29.9h0.1c-7.3,6.2-15.6,9.3-24.9,9.3c-3.1,0-6.2-0.4-9.3-1.1c-3.1-0.8-6.1-1.9-8.9-3.3
			c-2.9-1.5-5.5-3.3-8-5.5c-2.5-2.2-4.7-4.7-6.5-7.5c-1.1-1.4-1.7-3.1-1.7-5c0-1.2,0.2-2.2,0.6-3.3c0.4-1,1-1.9,1.8-2.7
			c0.8-0.8,1.6-1.3,2.6-1.8c1-0.4,2.1-0.6,3.3-0.6c3.1,0,5.4,1.3,7,3.9c2.2,3.4,5,6,8.3,7.7c3.3,1.7,6.9,2.6,10.7,2.6
			c3,0,5.8-0.6,8.5-1.8c2.6-1.2,5-2.8,6.9-4.8c2-2,3.5-4.3,4.7-7c1.2-2.7,1.7-5.6,1.7-8.6c0-2.9-0.5-5.6-1.6-8.1
			c-1.1-2.5-3.1-5.1-6.2-7.6c-3.1-2.5-7.9-4.7-14.6-6.7C923.7,85,918,82,914.1,78.5z"/>
	</g>
	<g>
		<path class="st9" d="M96.1,271.9c10.4-12.4,15.7-24.5,15.7-36v-1.6c0-9.8-2.8-19-8.5-27.4c0,0,0-0.1-0.1-0.1
			c-11.4-15.2-25.2-22.8-41-22.8c-0.1,0-0.3,0-0.4,0l-2,0.4H27.4h-1.3c-0.2,0-0.3,0-0.5,0.1c-7.8,0.6-10.1,5.1-10.6,8.8
			c0,0.1,0,0.2,0,0.3v186.1c0,3.3,1.5,7.5,8.7,8.8c0.1,0,0.2,0,0.4,0H73c6.4,0,13.6-1.4,21.5-4.2c0.1,0,0.2-0.1,0.3-0.1
			c25.1-12.9,37.8-31.7,37.8-55.9C132.6,304.9,120.3,286,96.1,271.9z M109.6,240.3c-0.2,1.5-0.4,2.9-0.8,4.4
			C109.1,243.2,109.4,241.8,109.6,240.3z M17,379.6L17,379.6c0,0.5,0,1,0.1,1.5C17,380.7,17,380.2,17,379.6z M25.2,186.6
			c0.3,0,0.7-0.1,1-0.1l-0.1,0h0l0.1,0c0,0,0,0,0,0l0,0C25.9,186.5,25.6,186.5,25.2,186.6z M93.2,233.7v1.6c0,3.9-0.8,7.8-2.3,11.6
			c-5.4,13.6-17.2,20.2-36,20.2H33.1v-64.6h22.5l11.6,0.6C84.6,208.8,93.2,218.8,93.2,233.7z M31.1,200.5h24.5l11.3,0.6l-11.3-0.6
			L31.1,200.5L31.1,200.5z M31.1,283.2h33.8l16,1l-16-1L31.1,283.2L31.1,283.2z M113.9,328.3c0,8.6-2.5,16.5-7.3,23.4
			c0,0-0.1,0.1-0.1,0.1c-7.4,12.3-22,18.6-43.4,18.6H33.1v-85.2h31.7l15.6,1c22.5,7.1,33.5,20.6,33.5,41.1V328.3z"/>
		<path class="st9" d="M346.4,231.6c-23.1-31.8-52.3-48-86.6-48c-20.8,0-40.8,6.5-59.3,19.4c0,0-0.1,0-0.1,0.1
			c-28.6,22.2-43.1,50-43.1,82.5c0,19.2,5.1,37.3,15.1,53.7c0,0,0,0.1,0.1,0.1c22.1,32.6,51.1,49.2,86.2,49.2h2.2
			c19.1,0,37.5-5.6,54.9-16.7c0,0,0.1,0,0.1-0.1c30.8-22.5,46.4-51.2,46.4-85.2c0-18.3-5.3-36.8-15.6-54.8
			C346.5,231.7,346.4,231.6,346.4,231.6z M159.3,285.5L159.3,285.5c0,1.8,0,3.5,0.1,5.3C159.3,289.1,159.3,287.3,159.3,285.5z
			 M188.9,236.8c4-5.2,8.1-9.9,12.5-14C197,226.9,192.8,231.6,188.9,236.8c-0.6,0.9-1.3,1.9-1.9,2.8
			C187.6,238.7,188.2,237.7,188.9,236.8z M260.8,386.5L260.8,386.5c1.2,0,2.3,0,3.5-0.1C263.1,386.4,262,386.5,260.8,386.5z
			 M328.4,335.2c-18.2,23.3-40.7,35.2-67,35.2h-2.8c-16.7,0-32.7-5.1-47.6-15.1c-23.7-18.4-35.7-41.3-35.7-68.1
			c0-18.1,5.1-34.7,15.1-49.2c18.3-24.1,41.6-36.3,69.3-36.3c14.4,0,28.7,4,42.5,11.9c27.7,17.7,41.8,42.1,41.8,72.4
			C344.1,303.6,338.8,320.2,328.4,335.2z"/>
		<path class="st9" d="M523.4,183.9c-0.1,0-0.3,0-0.4,0h-1.3c-3.1,0-7,1.5-8.2,8.6c0,0.1,0,0.2,0,0.3v121.5c0,7.5-1.2,14.9-3.5,22
			c-11.2,22.9-27.5,34-49.8,34c-11.5,0-21.9-3.6-31-10.6c-0.1,0-0.1-0.1-0.2-0.1c-14.7-8.8-22.1-26.2-22.1-51.8V191
			c0-2.5-1.4-5.7-8.3-7c-0.1,0-0.3,0-0.4,0h-1.7c-3,0-6.8,1.8-7.6,10.4c0,0.1,0,0.1,0,0.2v117.8c0,17.2,3.8,31.8,11.2,43.4
			c0,0,0.1,0.1,0.1,0.1c16.3,21.7,35.7,32.7,57.9,32.7h3.8c13.1,0,26.2-4.3,39-12.8c0,0,0.1-0.1,0.1-0.1
			c20.3-15.8,30.6-34.5,30.6-55.7V192.1C531.5,189.1,530.1,185.3,523.4,183.9z M390.9,312.2L390.9,312.2c0,3.2,0.1,6.2,0.4,9.2
			C391,318.5,390.9,315.4,390.9,312.2z M401.8,354.6c-0.5-0.7-0.9-1.4-1.3-2.2C400.9,353.1,401.3,353.9,401.8,354.6
			c0.7,1,1.5,2,2.3,2.9C403.3,356.5,402.5,355.6,401.8,354.6z M420.9,374c1.1,0.8,2.3,1.6,3.4,2.4C423.2,375.6,422,374.8,420.9,374z
			 M485.6,381.6c2.4-1,4.7-2.1,7.1-3.4C490.3,379.5,487.9,380.6,485.6,381.6z M499.7,374c-1.6,1-3.1,2-4.7,2.9
			C496.5,376,498.1,375,499.7,374c1.1-0.8,2.1-1.6,3.1-2.5C501.7,372.4,500.7,373.2,499.7,374z M529.5,319.9c0,1.9-0.1,3.8-0.3,5.7
			C529.5,323.7,529.5,321.8,529.5,319.9L529.5,319.9z"/>
		<path class="st9" d="M668.3,370.4h-91.1V191c0-2.5-1.4-5.7-8.3-7c-0.1,0-0.3,0-0.4,0h-1.7c-3,0-6.8,1.8-7.6,10.4
			c0,0.1,0,0.1,0,0.2v184.3c0,0.1,0,0.2,0,0.4c1.4,7.7,5.6,9.3,8.8,9.3h100.4c2.9,0,6.7-1.4,8.6-8c0.1-0.3,0.1-0.5,0.1-0.8
			C676,372,671.7,370.4,668.3,370.4z M561.2,378.8L561.2,378.8c0.2,1,0.4,1.8,0.7,2.6C561.6,380.6,561.3,379.7,561.2,378.8z
			 M562.8,383.5c0.2,0.4,0.5,0.8,0.8,1.1C563.3,384.2,563,383.9,562.8,383.5z"/>
		<path class="st9" d="M828.3,182.6c-0.2,0-0.3,0-0.5,0.1l-1.9,0.5H718.7h-1.3c-0.2,0-0.3,0-0.5,0.1c-7.8,0.6-10.1,5.1-10.6,8.8
			c0,0.1,0,0.2,0,0.3v187.4c0,3.3,1.5,7.5,8.7,8.8c0.1,0,0.2,0,0.4,0H829c2.6,0,6.1-1.4,8-8c0.1-0.3,0.1-0.6,0.1-0.9
			c-1.2-7.8-4.8-9.4-7.6-9.4h-105v-73.7H790l10.2,0.6c0,0,0.1,0,0.1,0c0.3,0,0.6-0.1,0.8-0.2c4.6-2.1,7-5,7-8.8c0-0.1,0-0.3,0-0.4
			c-1.4-6.2-4.1-9.4-8-9.4c0,0-0.1,0-0.1,0l-7.8,0.6h-67.7v-77.5h102.4c5.6,0,9.2-2.8,10.4-8.1c0.1-0.2,0.1-0.5,0-0.7
			C836.1,184.3,831.7,182.6,828.3,182.6z M708.2,379.6L708.2,379.6c0,0.5,0,1,0.1,1.5C708.3,380.7,708.2,380.2,708.2,379.6z
			 M716.5,185.3c0.3,0,0.7-0.1,1-0.1l-0.1,0l0.1,0c0,0,0,0,0,0l0,0C717.1,185.2,716.8,185.2,716.5,185.3z"/>
		<path class="st9" d="M952.3,285c-0.1-0.1-0.1-0.1-0.2-0.1c-11.3-9.2-22.4-14.7-32.7-16.2c-7.4-1.1-13.7-3.5-19-7.2
			c-9.2-6.5-13.7-14.8-13.7-25.4v-4.5c0-3.4,0.8-6.9,2.4-10.1c6.7-13.7,16.2-20.3,29.1-20.3h3.3c4.8,0,9.9,1.4,15.2,4.1
			c2.4,1.2,4.7,3,6.9,5.3c7.4,7.8,9.5,8.5,10.9,8.5c0.1,0,0.2,0,0.3,0c7.4-1.2,8.9-4.6,8.9-7.2v-2.9c0-0.2,0-0.3-0.1-0.5l-0.3-1.2
			c-0.1-0.3-0.2-0.5-0.3-0.7c-11.3-15.4-25.8-23.2-43.2-23.2c-6.4,0-13.4,1.5-20.7,4.3c-0.1,0-0.1,0.1-0.2,0.1
			c-20,10.5-30.1,25.2-30.1,43.8v3.9c0,16.3,7.6,30.1,22.6,40.9c4.4,3.1,9.4,5.5,14.9,7.1l13.6,3.8c8.4,2.3,16,6.6,21.8,12.2
			c7.9,7.6,11.9,16.7,11.9,27v5.5c0,0.9-0.1,2-0.2,3.2c-0.8,6.6-3.5,13-7.7,18.5c-8.6,11.4-18.9,17-31.4,17h-4.9
			c-3.8,0-8-0.8-12.3-2.5c-6.5-2.5-12.6-6.7-18-12.4c-4-4.2-7-6.2-9.6-6.2c-2.7,0-7.5,1.1-8.8,8.3c0,0.3,0,0.5,0,0.8l0.7,3
			c0.1,0.3,0.2,0.5,0.4,0.7c13.1,17.2,30,25.9,50.3,25.9c12.6,0,24.2-3.6,34.5-10.6c0,0,0,0,0.1,0c16.8-12.6,25.3-29,25.3-48.6
			C972,313.1,965.4,298.3,952.3,285z M959.9,215c-1.2,0.9-3,1.5-5.4,1.9h0C956.9,216.5,958.7,215.9,959.9,215z M945.1,209.1
			c0.9,1,1.8,1.9,2.6,2.7C946.9,210.9,946,210,945.1,209.1c-0.5-0.6-1.1-1.1-1.7-1.6C944,207.9,944.5,208.5,945.1,209.1z
			 M937.7,203.4c0.7,0.4,1.4,0.7,2,1.2C939.1,204.1,938.4,203.7,937.7,203.4c-1.4-0.7-2.8-1.3-4.1-1.9
			C934.9,202,936.3,202.7,937.7,203.4z M892.6,274.8c-14.5-10.5-21.8-23.6-21.8-39.3v-3.9c0-3.1,0.3-6,0.9-8.9
			c-0.6,2.8-0.9,5.8-0.9,8.9v3.9C870.8,251.2,878.1,264.3,892.6,274.8c0.8,0.6,1.6,1.1,2.5,1.7C894.2,275.9,893.4,275.4,892.6,274.8
			z M862.7,358.3L862.7,358.3l0.7,3L862.7,358.3z M869.5,351.7L869.5,351.7c0.2,0,0.5,0,0.8,0.1C870,351.7,869.7,351.7,869.5,351.7z
			 M955.6,331.9c0,0.2,0,0.5,0,0.8C955.6,332.4,955.6,332.2,955.6,331.9l0-5.5c0-1.9-0.1-3.8-0.4-5.6c0.3,1.8,0.4,3.7,0.4,5.6V331.9
			z M958.4,363.7c1.4-1.8,2.7-3.7,3.8-5.6C961.1,360,959.8,361.9,958.4,363.7z M969.4,320.9c0.4,2.7,0.6,5.5,0.6,8.3
			c0,9.4-2,17.9-5.9,25.7c4-7.7,5.9-16.3,5.9-25.7C970,326.4,969.8,323.6,969.4,320.9z"/>
	</g>
	<g>
		<g>
			<radialGradient id="SVGID_10_" cx="1266.2318" cy="121.7685" r="239.1501" gradientUnits="userSpaceOnUse">
				<stop  offset="0" style="stop-color:#FFFFFF"/>
				<stop  offset="1" style="stop-color:#696969"/>
			</radialGradient>
			<circle class="st10" cx="1221.7" cy="204" r="184"/>
			<radialGradient id="SVGID_11_" cx="1244.484" cy="120.0887" r="130.1924" gradientUnits="userSpaceOnUse">
				<stop  offset="0" style="stop-color:#FFFFFF"/>
				<stop  offset="1" style="stop-color:#696969"/>
			</radialGradient>
			<path class="st11" d="M1037.6,199c0,0,153.6-154.3,353.4-67.2l-2.9-9c0,0-186.1-90.1-348.8,56.8L1037.6,199z"/>
			<radialGradient id="SVGID_12_" cx="1259.5006" cy="92.8975" r="99.5736" gradientUnits="userSpaceOnUse">
				<stop  offset="0" style="stop-color:#FFFFFF"/>
				<stop  offset="1" style="stop-color:#696969"/>
			</radialGradient>
			<path class="st12" d="M1044.5,154c0,0,124.4-116.1,321.4-58.4l-8.7-16.1c0,0-169.8-53.4-306.3,56"/>
			<radialGradient id="SVGID_13_" cx="1301.1328" cy="208.7728" r="133.8845" gradientUnits="userSpaceOnUse">
				<stop  offset="0" style="stop-color:#FFFFFF"/>
				<stop  offset="1" style="stop-color:#696969"/>
			</radialGradient>
			<path class="st13" d="M1106.8,60.2c0,0,34.3,296.2,297.9,162.8l-3.6,21.7c0,0-245.9,139.9-307.7-172.7"/>
			<radialGradient id="SVGID_14_" cx="1322.3138" cy="233.0898" r="138.4656" gradientUnits="userSpaceOnUse">
				<stop  offset="0" style="stop-color:#FFFFFF"/>
				<stop  offset="0" style="stop-color:#E7E6E6"/>
				<stop  offset="1" style="stop-color:#696969"/>
			</radialGradient>
			<path class="st14" d="M1084,85.6c0,0,35.5,299.4,310.9,180.6l-6.8,16.5c0,0-254.4,122.7-316.4-185.4"/>
			<radialGradient id="SVGID_15_" cx="1296.0087" cy="231.5496" r="119.8187" gradientUnits="userSpaceOnUse">
				<stop  offset="0" style="stop-color:#FFFFFF"/>
				<stop  offset="1" style="stop-color:#696969"/>
			</radialGradient>
			<path class="st15" d="M1109.4,349.8c0,0,59.5-178.4,296.3-153.7v12.6c0,0-204.7-21.5-284.4,149.6"/>
		</g>
		<radialGradient id="SVGID_16_" cx="1490.266" cy="310.0262" r="58.6919" gradientUnits="userSpaceOnUse">
			<stop  offset="0" style="stop-color:#FF4B2B"/>
			<stop  offset="1" style="stop-color:#FF416C"/>
		</radialGradient>
		<circle class="st16" cx="1482.3" cy="329.4" r="58.7"/>
	</g>
</g>
</svg>
